<svg xmlns="http://www.w3.org/2000/svg" xmlns:xlink="http://www.w3.org/1999/xlink" version="1.1" width="1000" height="1000" viewBox="0 0 1000 1000" xml:space="preserve">
<desc>Created with Fabric.js 3.5.0</desc>
<defs>
</defs>
<rect x="0" y="0" width="100%" height="100%" fill="#ffffff"/>
<g transform="matrix(-1 0 0 1 491.846 505.2106)" id="229657">
<g style="">
		<g transform="matrix(0.9425 0 0 0.9425 -183.7205 239.2584)" id="638820">
<path style="stroke: none; stroke-width: 1; stroke-dasharray: none; stroke-linecap: butt; stroke-dashoffset: 0; stroke-linejoin: miter; stroke-miterlimit: 4; is-custom-font: none; font-file-url: none; fill: rgb(242,242,242); fill-rule: nonzero; opacity: 1;" transform=" translate(-405.071, -703.8551)" d="M 452.65527 713.275 l -29 16.84 l 28.58985 -6.9 c -0.22022 2.36 -0.52 4.68 -0.91992 6.95 c -0.11036 0.63 -0.23 1.25 -0.36036 1.87 a 51.87781 51.87781 0 0 1 -5.25 14.92005 c -0.48 0.86 -0.96 1.69995 -1.46 2.51 c -0.48 0.82 -0.98 1.61 -1.48974 2.38 H 365.895 c -0.64014 -0.77 -1.25 -1.57 -1.81006 -2.38 a 35.97564 35.97564 0 0 1 -6.17969 -26.62 a 44.96785 44.96785 0 0 1 1.19971 -5.63 a 51.56839 51.56839 0 0 1 1.83008 -5.57 a 73.442 73.442 0 0 1 4.41015 -9.35 c 3.52 -6.34 9.00977 -12.06 15.48 -17.14 a 108.06933 108.06933 0 0 1 9.77978 -6.8 q 0.96021 -0.615 1.9502 -1.2 c 1.00976 -0.6 2.02 -1.19 3.04 -1.76 c 2.02979 -1.16 4.07959 -2.26 6.12989 -3.3 c 0.54 -0.28 1.06982 -0.55 1.6001 -0.81 c 4.4497 -2.22 8.87988 -4.21 13.0996 -5.96 c 0.53028 -0.22 1.07032 -0.44 1.6001 -0.65 a 233.30757 233.30757 0 0 1 25.72022 -8.81 s 0.02978 0.08 0.08008 0.25 c 0.12988 0.46 0.46 1.57 0.90966 3.21 c 1.25 4.55 3.4502 13.23 5.22022 23.71 c 0.1001 0.57 0.18994 1.15 0.29 1.73005 a 181.68776 181.68776 0 0 1 2.4497 26.81 c 0.01026 0.56 0.01026 1.11 0.01026 1.67 Z" stroke-linecap="round"/>
</g>
		<g transform="matrix(0.9425 0 0 0.9425 -166.9403 238.5986)" id="349531">
<path style="stroke: none; stroke-width: 1; stroke-dasharray: none; stroke-linecap: butt; stroke-dashoffset: 0; stroke-linejoin: miter; stroke-miterlimit: 4; is-custom-font: none; font-file-url: none; fill: rgb(255,255,255); fill-rule: nonzero; opacity: 1;" transform=" translate(-422.875, -703.155)" d="M 445.86523 654.845 c -0.01025 0.03 -0.11035 0.52 -0.34033 1.42 c -0.18994 0.75 -0.4497 1.78 -0.79 3.06 c -1.16992 4.47 -3.25 11.96 -6.21 20.98 c -0.16992 0.52 -0.3501 1.06 -0.52978 1.6 c -2.06006 6.17 -4.51026 12.99 -7.33985 20 c -0.71045 1.76 -1.42041 3.49 -2.15039 5.18 c -0.21972 0.53 -0.43994 1.05005 -0.66992 1.56 q -4.65015 10.77007 -9.56982 19.71 l -0.83008 1.49 a 134.52429 134.52429 0 0 1 -13.18994 19.62 c -0.66992 0.82 -1.3501 1.61 -2.04 2.38 h -2.32031 c 0.70019 -0.77 1.40039 -1.57 2.08007 -2.38 a 132.14581 132.14581 0 0 0 13.87012 -20.4 c 0.28027 -0.49 0.56006 -0.98 0.83008 -1.48 c 3.52978 -6.41 6.74023 -13.11 9.60986 -19.75 c 0.23 -0.51 0.4502 -1.03 0.66992 -1.56 c 3.75 -8.78 6.90039 -17.41 9.44 -25.00994 c 0.18017 -0.54 0.36035 -1.08 0.53027 -1.61005 c 3.70019 -11.22 6.02 -20.02 6.91016 -23.54 c 0.11962 -0.52 0.21972 -0.93 0.29 -1.21 c 0.06983 -0.26 0.09961 -0.41 0.10987 -0.44 l 0.81006 0.19 h 0.00976 Z" stroke-linecap="round"/>
</g>
		<g transform="matrix(0.9425 0 0 0.9425 -156.5445 211.6101)" id="805237">
<path style="stroke: none; stroke-width: 1; stroke-dasharray: none; stroke-linecap: butt; stroke-dashoffset: 0; stroke-linejoin: miter; stroke-miterlimit: 4; is-custom-font: none; font-file-url: none; fill: rgb(255,255,255); fill-rule: nonzero; opacity: 1;" transform=" translate(-433.905, -674.52)" d="M 451.48486 683.165 c -0.50976 -0.03 -1.02 -0.08 -1.52978 -0.13 a 44.99648 44.99648 0 0 1 -11.43018 -2.73 c -0.52978 -0.21 -1.06982 -0.42 -1.60986 -0.65 a 45.858 45.858 0 0 1 -4.28027 -2.11 a 45.27611 45.27611 0 0 1 -14.60987 -12.87 c -0.12988 -0.17 -0.25976 -0.35 -0.37988 -0.52 q -0.78 0.33 -1.58984 0.66 c 0.11962 0.17 0.23974 0.34 0.36962 0.51 a 46.76551 46.76551 0 0 0 15.39014 13.7 a 48.307 48.307 0 0 0 4.56983 2.24006 c 0.53027 0.22 1.07031 0.44 1.61035 0.63995 a 46.89079 46.89079 0 0 0 12.25 2.86005 c 0.5 0.05 1.00976 0.09 1.50976 0.12 C 451.665 684.295 451.5752 683.725 451.48486 683.165 Z" stroke-linecap="round"/>
</g>
		<g transform="matrix(0.9425 0 0 0.9425 -162.2653 228.1882)" id="789827">
<path style="stroke: none; stroke-width: 1; stroke-dasharray: none; stroke-linecap: butt; stroke-dashoffset: 0; stroke-linejoin: miter; stroke-miterlimit: 4; is-custom-font: none; font-file-url: none; fill: rgb(255,255,255); fill-rule: nonzero; opacity: 1;" transform=" translate(-427.8352, -692.1095)" d="M 452.69482 711.575 a 45.37037 45.37037 0 0 1 -24.18994 -4.49 q -0.79467 -0.375 -1.56006 -0.81 a 4.2326 4.2326 0 0 1 -0.46972 -0.25 a 45.58023 45.58023 0 0 1 -23.1499 -34.74 c -0.02 -0.17 -0.04 -0.35 -0.06006 -0.51995 c -0.54 0.28 -1.08008 0.55 -1.60987 0.83 c 0.01953 0.17 0.03955 0.33 0.06983 0.5 a 47.22571 47.22571 0 0 0 23.93017 35.41 c 0.19971 0.11 0.40967 0.23 0.61963 0.32995 q 0.78 0.42 1.56006 0.81 a 47.05043 47.05043 0 0 0 24.82031 4.63 c 0.44971 -0.04 0.89991 -0.09 1.34961 -0.13995 c 0 -0.57 0.01026 -1.13 0.01026 -1.7 C 453.5752 711.485 453.13477 711.535 452.69482 711.575 Z" stroke-linecap="round"/>
</g>
		<g transform="matrix(0.9425 0 0 0.9425 -168.5529 240.7154)" id="583659">
<path style="stroke: none; stroke-width: 1; stroke-dasharray: none; stroke-linecap: butt; stroke-dashoffset: 0; stroke-linejoin: miter; stroke-miterlimit: 4; is-custom-font: none; font-file-url: none; fill: rgb(255,255,255); fill-rule: nonzero; opacity: 1;" transform=" translate(-421.164, -705.401)" d="M 451.3252 730.165 a 45.54776 45.54776 0 0 1 -27.75 0.21 a 44.468 44.468 0 0 1 -5.31006 -2.02 c -0.54 -0.24 -1.07032 -0.5 -1.6001 -0.77 c -0.56983 -0.28 -1.12988 -0.57995 -1.68018 -0.87994 a 45.67468 45.67468 0 0 1 -23.38965 -42.39 a 43.76337 43.76337 0 0 1 0.96 -7.16 c 0.02978 -0.16 0.06 -0.32 0.10009 -0.48 c -0.66015 0.41 -1.32031 0.82 -1.97021 1.24 c -0.02979 0.15 -0.06006 0.29 -0.08008 0.44 a 46.77057 46.77057 0 0 0 -0.73 9.79 a 47.25281 47.25281 0 0 0 24.28027 40.03 c 0.55957 0.31 1.11963 0.61 1.67969 0.89 c 0.53027 0.27 1.07031 0.53 1.6001 0.78 a 47.17478 47.17478 0 0 0 33.52978 2.19 c 0.37012 -0.1 0.74024 -0.22 1.11036 -0.34 c 0.1499 -0.64 0.27978 -1.28 0.3999 -1.92 C 452.09521 729.915 451.71484 730.045 451.3252 730.165 Z" stroke-linecap="round"/>
</g>
		<g transform="matrix(0.9425 0 0 0.9425 -231.2658 -25.7538)" id="897544">
<rect style="stroke: none; stroke-width: 1; stroke-dasharray: none; stroke-linecap: butt; stroke-dashoffset: 0; stroke-linejoin: miter; stroke-miterlimit: 4; is-custom-font: none; font-file-url: none; fill: rgb(158,97,106); fill-rule: nonzero; opacity: 1;" x="-28" y="-28" rx="0" ry="0" width="56" height="56"/>
</g>
		<g transform="matrix(0.9425 0 0 0.9425 -282.8998 243.2498)" id="17614">
<polygon style="stroke: none; stroke-width: 1; stroke-dasharray: none; stroke-linecap: butt; stroke-dashoffset: 0; stroke-linejoin: miter; stroke-miterlimit: 4; is-custom-font: none; font-file-url: none; fill: rgb(158,97,106); fill-rule: nonzero; opacity: 1;" points="-8.14,21.279 2.894,21.278 8.142,-21.279 -8.142,-21.278 -8.14,21.279 "/>
</g>
		<g transform="matrix(0.9425 0 0 0.9425 -278.1459 270.1204)" id="587581">
<path style="stroke: none; stroke-width: 1; stroke-dasharray: none; stroke-linecap: butt; stroke-dashoffset: 0; stroke-linejoin: miter; stroke-miterlimit: 4; is-custom-font: none; font-file-url: none; fill: rgb(47,46,65); fill-rule: nonzero; opacity: 1;" transform=" translate(-304.885, -736.6)" d="M 321.98486 741.805 l -16.57959 -11.45 v -7.47 l -1.88037 0.11 l -11.81982 0.71 l -3.74024 0.22 l -2.12988 25.54 l -0.06982 0.85 h 7.83007 l 0.15967 -0.85 l 1.24024 -6.54 l 3.16992 6.54 l 0.41016 0.85 H 319.335 a 4.67905 4.67905 0 0 0 4.66992 -4.66 A 4.67076 4.67076 0 0 0 321.98486 741.805 Z" stroke-linecap="round"/>
</g>
		<g transform="matrix(0.9425 0 0 0.9425 -216.8371 238.8657)" id="124544">
<polygon style="stroke: none; stroke-width: 1; stroke-dasharray: none; stroke-linecap: butt; stroke-dashoffset: 0; stroke-linejoin: miter; stroke-miterlimit: 4; is-custom-font: none; font-file-url: none; fill: rgb(158,97,106); fill-rule: nonzero; opacity: 1;" points="-13.706,18.9255 -3.102,21.9745 13.706,-17.4735 -1.944,-21.9745 -13.706,18.9255 "/>
</g>
		<g transform="matrix(0.9425 0 0 0.9425 -222.5754 266.9277)" id="898108">
<path style="stroke: none; stroke-width: 1; stroke-dasharray: none; stroke-linecap: butt; stroke-dashoffset: 0; stroke-linejoin: miter; stroke-miterlimit: 4; is-custom-font: none; font-file-url: none; fill: rgb(47,46,65); fill-rule: nonzero; opacity: 1;" transform=" translate(-363.8456, -733.2124)" d="M 381.895 742.695 l -12.77 -15.59 l 2.06982 -7.18 l -1.83984 -0.41 l -10.25 -2.3 l -1.31006 -0.29 l -3.6499 -0.82 l -9.41016 24.75 l 7.52 2.17 l 3.39014 -6.72 l 1.39014 8.09 l 4.73974 1.36005 l 12.89014 3.71 l 2.33008 0.67 a 4.66278 4.66278 0 0 0 4.8999 -7.44 Z" stroke-linecap="round"/>
</g>
		<g transform="matrix(0.9425 0 0 0.9425 167.8829 -272.326)" id="800980">
<path style="stroke: none; stroke-width: 1; stroke-dasharray: none; stroke-linecap: butt; stroke-dashoffset: 0; stroke-linejoin: miter; stroke-miterlimit: 4; is-custom-font: none; font-file-url: none; fill: rgb(228,228,228); fill-rule: nonzero; opacity: 1;" transform=" translate(-778.125, -161.06)" d="M 1070.355 148.155 H 485.895 a 3.28 3.28 0 0 0 -3.27 3.28 v 19.25 a 3.27992 3.27992 0 0 0 3.27 3.28 h 584.46 a 3.27961 3.27961 0 0 0 3.27 -3.28 v -19.25 A 3.27966 3.27966 0 0 0 1070.355 148.155 Z" stroke-linecap="round"/>
</g>
		<g transform="matrix(0.9425 0 0 0.9425 -92.7196 -273.2121)" id="b5b16cf8-67a2-4f26-b1bf-3e43b6764a92">
<circle style="stroke: none; stroke-width: 1; stroke-dasharray: none; stroke-linecap: butt; stroke-dashoffset: 0; stroke-linejoin: miter; stroke-miterlimit: 4; is-custom-font: none; font-file-url: none; fill: rgb(255,255,255); fill-rule: nonzero; opacity: 1;" cx="0" cy="0" r="4.64784"/>
</g>
		<g transform="matrix(0.9425 0 0 0.9425 -76.0924 -273.2121)" id="b66c556c-a3ce-485d-a169-682ae89102b6">
<circle style="stroke: none; stroke-width: 1; stroke-dasharray: none; stroke-linecap: butt; stroke-dashoffset: 0; stroke-linejoin: miter; stroke-miterlimit: 4; is-custom-font: none; font-file-url: none; fill: rgb(255,255,255); fill-rule: nonzero; opacity: 1;" cx="0" cy="0" r="4.64784"/>
</g>
		<g transform="matrix(0.9425 0 0 0.9425 -59.4644 -273.2121)" id="b9ccba63-6bb8-47f6-85e8-d2b1a1d873e2">
<circle style="stroke: none; stroke-width: 1; stroke-dasharray: none; stroke-linecap: butt; stroke-dashoffset: 0; stroke-linejoin: miter; stroke-miterlimit: 4; is-custom-font: none; font-file-url: none; fill: rgb(255,255,255); fill-rule: nonzero; opacity: 1;" cx="0" cy="0" r="4.64784"/>
</g>
		<g transform="matrix(0.9425 0 0 0.9425 417.4426 -277.6417)" id="175460">
<path style="stroke: none; stroke-width: 1; stroke-dasharray: none; stroke-linecap: butt; stroke-dashoffset: 0; stroke-linejoin: miter; stroke-miterlimit: 4; is-custom-font: none; font-file-url: none; fill: rgb(255,255,255); fill-rule: nonzero; opacity: 1;" transform=" translate(-1042.9099, -155.42)" d="M 1053.06494 153.915 h -20.31006 a 1.505 1.505 0 1 0 0 3.01 h 20.31006 a 1.505 1.505 0 1 0 0 -3.01 Z" stroke-linecap="round"/>
</g>
		<g transform="matrix(0.9425 0 0 0.9425 417.4426 -272.326)" id="272147">
<path style="stroke: none; stroke-width: 1; stroke-dasharray: none; stroke-linecap: butt; stroke-dashoffset: 0; stroke-linejoin: miter; stroke-miterlimit: 4; is-custom-font: none; font-file-url: none; fill: rgb(255,255,255); fill-rule: nonzero; opacity: 1;" transform=" translate(-1042.9099, -161.06)" d="M 1053.06494 159.555 h -20.31006 a 1.505 1.505 0 1 0 0 3.01 h 20.31006 a 1.505 1.505 0 1 0 0 -3.01 Z" stroke-linecap="round"/>
</g>
		<g transform="matrix(0.9425 0 0 0.9425 417.4426 -267.0103)" id="964458">
<path style="stroke: none; stroke-width: 1; stroke-dasharray: none; stroke-linecap: butt; stroke-dashoffset: 0; stroke-linejoin: miter; stroke-miterlimit: 4; is-custom-font: none; font-file-url: none; fill: rgb(255,255,255); fill-rule: nonzero; opacity: 1;" transform=" translate(-1042.9099, -166.7)" d="M 1053.06494 165.195 h -20.31006 a 1.505 1.505 0 1 0 0 3.01 h 20.31006 a 1.505 1.505 0 1 0 0 -3.01 Z" stroke-linecap="round"/>
</g>
		<g transform="matrix(0.9425 0 0 0.9425 353.4752 -174.9752)" id="156655">
<path style="stroke: none; stroke-width: 1; stroke-dasharray: none; stroke-linecap: butt; stroke-dashoffset: 0; stroke-linejoin: miter; stroke-miterlimit: 4; is-custom-font: none; font-file-url: none; fill: rgb(228,228,228); fill-rule: nonzero; opacity: 1;" transform=" translate(-975.04, -264.35)" d="M 1050.75488 229.645 H 899.3252 a 3.99016 3.99016 0 0 0 -3.98 3.98 v 61.45 a 3.9901 3.9901 0 0 0 3.98 3.98 h 151.42968 a 3.9838 3.9838 0 0 0 3.98 -3.98 v -61.45 A 3.98385 3.98385 0 0 0 1050.75488 229.645 Z" stroke-linecap="round"/>
</g>
		<g transform="matrix(0.9425 0 0 0.9425 353.4129 -118.9906)" id="903060">
<path style="stroke: none; stroke-width: 1; stroke-dasharray: none; stroke-linecap: butt; stroke-dashoffset: 0; stroke-linejoin: miter; stroke-miterlimit: 4; is-custom-font: none; font-file-url: none; fill: rgb(228,228,228); fill-rule: nonzero; opacity: 1;" transform=" translate(-974.9739, -323.75)" d="M 1036.335 318.975 H 913.74512 a 4.775 4.775 0 0 0 0 9.55 H 1036.335 C 1042.55518 328.615 1042.49512 318.885 1036.335 318.975 Z" stroke-linecap="round"/>
</g>
		<g transform="matrix(0.9425 0 0 0.9425 353.4129 -98.3593)" id="158934">
<path style="stroke: none; stroke-width: 1; stroke-dasharray: none; stroke-linecap: butt; stroke-dashoffset: 0; stroke-linejoin: miter; stroke-miterlimit: 4; is-custom-font: none; font-file-url: none; fill: rgb(228,228,228); fill-rule: nonzero; opacity: 1;" transform=" translate(-974.9739, -345.64)" d="M 1036.335 340.865 H 913.74512 a 4.775 4.775 0 0 0 0 9.55 H 1036.335 C 1042.55518 350.505 1042.49512 340.775 1036.335 340.865 Z" stroke-linecap="round"/>
</g>
		<g transform="matrix(0.9425 0 0 0.9425 353.4129 -77.728)" id="721995">
<path style="stroke: none; stroke-width: 1; stroke-dasharray: none; stroke-linecap: butt; stroke-dashoffset: 0; stroke-linejoin: miter; stroke-miterlimit: 4; is-custom-font: none; font-file-url: none; fill: rgb(228,228,228); fill-rule: nonzero; opacity: 1;" transform=" translate(-974.9739, -367.53)" d="M 1036.335 362.755 H 913.74512 a 4.775 4.775 0 0 0 0 9.55 H 1036.335 C 1042.55518 372.395 1042.49512 362.665 1036.335 362.755 Z" stroke-linecap="round"/>
</g>
		<g transform="matrix(0.9425 0 0 0.9425 165.9177 -174.9752)" id="845017">
<path style="stroke: none; stroke-width: 1; stroke-dasharray: none; stroke-linecap: butt; stroke-dashoffset: 0; stroke-linejoin: miter; stroke-miterlimit: 4; is-custom-font: none; font-file-url: none; fill: rgb(228,228,228); fill-rule: nonzero; opacity: 1;" transform=" translate(-776.04, -264.35)" d="M 851.75488 229.645 H 700.3252 a 3.99016 3.99016 0 0 0 -3.98 3.98 v 61.45 a 3.9901 3.9901 0 0 0 3.98 3.98 H 851.75488 a 3.9838 3.9838 0 0 0 3.98 -3.98 v -61.45 A 3.98385 3.98385 0 0 0 851.75488 229.645 Z" stroke-linecap="round"/>
</g>
		<g transform="matrix(0.9425 0 0 0.9425 165.8554 -118.9906)" id="79414">
<path style="stroke: none; stroke-width: 1; stroke-dasharray: none; stroke-linecap: butt; stroke-dashoffset: 0; stroke-linejoin: miter; stroke-miterlimit: 4; is-custom-font: none; font-file-url: none; fill: rgb(228,228,228); fill-rule: nonzero; opacity: 1;" transform=" translate(-775.9739, -323.75)" d="M 837.335 318.975 H 714.74512 a 4.775 4.775 0 0 0 0 9.55 H 837.335 C 843.55518 328.615 843.49512 318.885 837.335 318.975 Z" stroke-linecap="round"/>
</g>
		<g transform="matrix(0.9425 0 0 0.9425 165.8554 -98.3593)" id="565569">
<path style="stroke: none; stroke-width: 1; stroke-dasharray: none; stroke-linecap: butt; stroke-dashoffset: 0; stroke-linejoin: miter; stroke-miterlimit: 4; is-custom-font: none; font-file-url: none; fill: rgb(228,228,228); fill-rule: nonzero; opacity: 1;" transform=" translate(-775.9739, -345.64)" d="M 837.335 340.865 H 714.74512 a 4.775 4.775 0 0 0 0 9.55 H 837.335 C 843.55518 350.505 843.49512 340.775 837.335 340.865 Z" stroke-linecap="round"/>
</g>
		<g transform="matrix(0.9425 0 0 0.9425 165.8554 -77.728)" id="201676">
<path style="stroke: none; stroke-width: 1; stroke-dasharray: none; stroke-linecap: butt; stroke-dashoffset: 0; stroke-linejoin: miter; stroke-miterlimit: 4; is-custom-font: none; font-file-url: none; fill: rgb(228,228,228); fill-rule: nonzero; opacity: 1;" transform=" translate(-775.9739, -367.53)" d="M 837.335 362.755 H 714.74512 a 4.775 4.775 0 0 0 0 9.55 H 837.335 C 843.55518 372.395 843.49512 362.665 837.335 362.755 Z" stroke-linecap="round"/>
</g>
		<g transform="matrix(0.9425 0 0 0.9425 -176.5 -108.729)" id="318770">
<path style="stroke: none; stroke-width: 1; stroke-dasharray: none; stroke-linecap: butt; stroke-dashoffset: 0; stroke-linejoin: miter; stroke-miterlimit: 4; is-custom-font: none; font-file-url: none; fill: rgb(158,97,106); fill-rule: nonzero; opacity: 1;" transform=" translate(-412.732, -334.6377)" d="M 472.04287 345.86227 a 10.02421 10.02421 0 0 0 -0.42317 1.74747 l -62.00428 -10.95961 l -53.4076 -28.7994 a 15.08 15.08 0 0 0 -16.0966 25.41817 l 0.00006 0 A 118.971 118.971 0 0 0 372.847 350.26435 l 38.71983 12.96946 l 67.82117 -4.34723 a 9.9971 9.9971 0 1 0 -7.34512 -13.02431 Z" stroke-linecap="round"/>
</g>
		<g transform="matrix(0.9425 0 0 0.9425 -67.8222 -56.2768)" id="935902">
<path style="stroke: none; stroke-width: 1; stroke-dasharray: none; stroke-linecap: butt; stroke-dashoffset: 0; stroke-linejoin: miter; stroke-miterlimit: 4; is-custom-font: none; font-file-url: none; fill: rgb(246,147,104); fill-rule: nonzero; opacity: 1;" transform=" translate(-528.04, -390.29)" d="M 624.55518 346.055 h -193.02 a 5.08706 5.08706 0 0 0 -5.08008 5.08 v 78.31 a 5.087 5.087 0 0 0 5.08008 5.07995 h 193.02 A 5.08488 5.08488 0 0 0 629.625 429.445 v -78.31 A 5.0849 5.0849 0 0 0 624.55518 346.055 Z" stroke-linecap="round"/>
</g>
		<g transform="matrix(0.9425 0 0 0.9425 -67.8988 15.0847)" id="570829">
<path style="stroke: none; stroke-width: 1; stroke-dasharray: none; stroke-linecap: butt; stroke-dashoffset: 0; stroke-linejoin: miter; stroke-miterlimit: 4; is-custom-font: none; font-file-url: none; fill: rgb(246,147,104); fill-rule: nonzero; opacity: 1;" transform=" translate(-527.9587, -466.005)" d="M 606.1748 459.915 H 449.915 a 6.09 6.09 0 0 0 0 12.18 H 606.1748 C 614.105 472.20505 614.0249 459.805 606.1748 459.915 Z" stroke-linecap="round"/>
</g>
		<g transform="matrix(0.9425 0 0 0.9425 -67.8988 41.3805)" id="489207">
<path style="stroke: none; stroke-width: 1; stroke-dasharray: none; stroke-linecap: butt; stroke-dashoffset: 0; stroke-linejoin: miter; stroke-miterlimit: 4; is-custom-font: none; font-file-url: none; fill: rgb(246,147,104); fill-rule: nonzero; opacity: 1;" transform=" translate(-527.9587, -493.905)" d="M 606.1748 487.815 H 449.915 a 6.09 6.09 0 0 0 0 12.18 H 606.1748 C 614.105 500.105 614.0249 487.70505 606.1748 487.815 Z" stroke-linecap="round"/>
</g>
		<g transform="matrix(0.9425 0 0 0.9425 -67.8965 67.6809)" id="531346">
<path style="stroke: none; stroke-width: 1; stroke-dasharray: none; stroke-linecap: butt; stroke-dashoffset: 0; stroke-linejoin: miter; stroke-miterlimit: 4; is-custom-font: none; font-file-url: none; fill: rgb(246,147,104); fill-rule: nonzero; opacity: 1;" transform=" translate(-527.9612, -521.81)" d="M 606.1748 515.725 H 449.915 a 6.085 6.085 0 1 0 0 12.17 H 606.1748 C 614.105 528.005 614.0249 515.615 606.1748 515.725 Z" stroke-linecap="round"/>
</g>
		<g transform="matrix(0.4521 -0.827 0.827 0.4521 -228.4112 -173.6155)" id="194185">
<circle style="stroke: none; stroke-width: 1; stroke-dasharray: none; stroke-linecap: butt; stroke-dashoffset: 0; stroke-linejoin: miter; stroke-miterlimit: 4; is-custom-font: none; font-file-url: none; fill: rgb(158,97,106); fill-rule: nonzero; opacity: 1;" cx="0" cy="0" r="29.72868"/>
</g>
		<g transform="matrix(0.9425 0 0 0.9425 -231.7468 -170.8988)" id="748438">
<path style="stroke: none; stroke-width: 1; stroke-dasharray: none; stroke-linecap: butt; stroke-dashoffset: 0; stroke-linejoin: miter; stroke-miterlimit: 4; is-custom-font: none; font-file-url: none; fill: rgb(47,46,65); fill-rule: nonzero; opacity: 1;" transform=" translate(-354.1148, -268.675)" d="M 362.625 229.675 H 343.4209 c -12.58985 0 -22.7959 11.48193 -22.7959 25.64563 c -9.5 9.53894 -6.64893 21.48919 0.88867 34.35437 a 149.22541 149.22541 0 0 1 39.541 10.57574 l 1.79248 -7.65448 l 3.53564 10.08081 q 4.71679 2.28534 9.35352 4.99793 c -3.60791 -16.95111 -5.09278 -33.86286 -2.61572 -47 H 379.625 v -7.1181 l 2.208 7.1181 h 11.792 V 260.675 A 30.9998 30.9998 0 0 0 362.625 229.675 Z" stroke-linecap="round"/>
</g>
		<g transform="matrix(0.9425 0 0 0.9425 -229.3622 -80.3372)" id="286596">
<path style="stroke: none; stroke-width: 1; stroke-dasharray: none; stroke-linecap: butt; stroke-dashoffset: 0; stroke-linejoin: miter; stroke-miterlimit: 4; is-custom-font: none; font-file-url: none; fill: rgb(202,202,202); fill-rule: nonzero; opacity: 1;" transform=" translate(-356.6448, -364.7616)" d="M 360.625 303.675 L 324.66978 302.116 l -0.967 3.67373 a 213.66873 213.66873 0 0 0 -3.59909 92.56989 l 0 0 h 0 a 8.24249 8.24249 0 0 1 2.34458 8.00651 l -0.5165 2.0591 l 0.04779 0.07542 a 12.06182 12.06182 0 0 1 1.60133 9.00482 v 0 l 1.79834 9.90181 L 383.625 401.675 l 13 -45 Z" stroke-linecap="round"/>
</g>
		<g transform="matrix(0.9425 0 0 0.9425 -189.0645 -81.5223)" id="266953">
<path style="stroke: none; stroke-width: 1; stroke-dasharray: none; stroke-linecap: butt; stroke-dashoffset: 0; stroke-linejoin: miter; stroke-miterlimit: 4; is-custom-font: none; font-file-url: none; fill: rgb(158,97,106); fill-rule: nonzero; opacity: 1;" transform=" translate(-399.401, -363.5042)" d="M 449.73154 398.51889 a 10.024 10.024 0 0 0 -1.08438 1.43417 L 396.1439 365.196 l -37.51032 -47.69436 a 15.08 15.08 0 0 0 -24.89132 16.89988 l 0 0 a 118.97085 118.97085 0 0 0 23.25336 28.63132 l 30.34607 27.323 l 63.93732 23.03539 a 9.9971 9.9971 0 1 0 -1.54751 -14.87242 Z" stroke-linecap="round"/>
</g>
		<g transform="matrix(0.9425 0 0 0.9425 -34.0163 -169.5704)" id="277896">
<path style="stroke: none; stroke-width: 1; stroke-dasharray: none; stroke-linecap: butt; stroke-dashoffset: 0; stroke-linejoin: miter; stroke-miterlimit: 4; is-custom-font: none; font-file-url: none; fill: rgb(228,228,228); fill-rule: nonzero; opacity: 1;" transform=" translate(-563.9085, -270.0845)" d="M 563.90846 298.81988 a 28.73541 28.73541 0 1 1 28.73541 -28.73541 A 28.73543 28.73543 0 0 1 563.90846 298.81988 Z" stroke-linecap="round"/>
</g>
		<g transform="matrix(0.9425 0 0 0.9425 -34.0112 -169.5703)" id="138896">
<path style="stroke: none; stroke-width: 1; stroke-dasharray: none; stroke-linecap: butt; stroke-dashoffset: 0; stroke-linejoin: miter; stroke-miterlimit: 4; is-custom-font: none; font-file-url: none; fill: rgb(255,255,255); fill-rule: nonzero; opacity: 1;" transform=" translate(-563.9137, -270.0846)" d="M 575.24669 267.25 h -8.50362 v -8.50373 a 2.83461 2.83461 0 0 0 -5.66922 0 V 267.25 h -8.50374 a 2.83457 2.83457 0 0 0 0 5.66913 h 8.50374 v 8.50372 a 2.83461 2.83461 0 0 0 5.66922 0 v -8.50372 h 8.50362 a 2.83457 2.83457 0 1 0 0 -5.66913 Z" stroke-linecap="round"/>
</g>
		<g transform="matrix(0.9425 0 0 0.9425 -230.9899 113.2649)" id="371676">
<path style="stroke: none; stroke-width: 1; stroke-dasharray: none; stroke-linecap: butt; stroke-dashoffset: 0; stroke-linejoin: miter; stroke-miterlimit: 4; is-custom-font: none; font-file-url: none; fill: rgb(47,46,65); fill-rule: nonzero; opacity: 1;" transform=" translate(-354.9179, -570.175)" d="M 420.61426 619.61374 a 16.87393 16.87393 0 0 0 -1.57031 -15.08753 L 393.625 472.675 l -10 -50 h -60 s -37.5 41.5 -29.5 94.5 l -2.23926 74.64014 a 27.44788 27.44788 0 0 0 -1.50342 16.18585 l 0.89112 4.22223 l -0.34375 0.63592 a 21.33414 21.33414 0 0 0 -0.26856 19.77216 L 288.125 717.175 l 18 -1 l 26.5 -98.5 l 17.5 -88.5 l 29.5 68.5 l 1 16 l -0.48535 14.10333 L 357.125 710.175 l 19.5 7.5 Z" stroke-linecap="round"/>
</g>
		<g transform="matrix(0.9425 0 0 0.9425 -239.1923 283.3673)" id="990178">
<path style="stroke: none; stroke-width: 1; stroke-dasharray: none; stroke-linecap: butt; stroke-dashoffset: 0; stroke-linejoin: miter; stroke-miterlimit: 4; is-custom-font: none; font-file-url: none; fill: rgb(202,202,202); fill-rule: nonzero; opacity: 1;" transform=" translate(-346.2151, -750.655)" d="M 566.05518 750.655 a 1.193 1.193 0 0 1 -1.18995 1.19 H 127.56494 a 1.19 1.19 0 0 1 0 -2.38 H 564.86523 A 1.18664 1.18664 0 0 1 566.05518 750.655 Z" stroke-linecap="round"/>
</g>
</g>
</g>
</svg>